<svg xmlns="http://www.w3.org/2000/svg" viewBox="0 0 720 480">
  <defs>
    <linearGradient id="bg" x1="0%" y1="0%" x2="100%" y2="100%">
      <stop offset="0%" stop-color="#f0fdfa"/>
      <stop offset="100%" stop-color="#ccfbf1"/>
    </linearGradient>
    <linearGradient id="car" x1="0%" y1="0%" x2="100%" y2="0%">
      <stop offset="0%" stop-color="#0ea5e9"/>
      <stop offset="100%" stop-color="#2563eb"/>
    </linearGradient>
  </defs>
  <rect width="720" height="480" fill="url(#bg)"/>
  <path d="M120 320h480a24 24 0 0 0 23.1-18.3l8.8-33a36 36 0 0 0-13-37.6l-76.6-58.8A72 72 0 0 0 492 160h-88.3a48 48 0 0 1-34-13.7l-25-24.8A64 64 0 0 0 302.7 104h-58.6a92 92 0 0 0-82.5 50.2L132 208H96a40 40 0 0 0-38.7 30.7l-6.6 28.6A37 37 0 0 0 88 320Z" fill="url(#car)"/>
  <rect x="164" y="193" width="148" height="74" rx="16" fill="#0f172a" opacity="0.12"/>
  <rect x="340" y="193" width="148" height="74" rx="16" fill="#0f172a" opacity="0.12"/>
  <g fill="#0f172a">
    <circle cx="212" cy="324" r="52"/>
    <circle cx="508" cy="324" r="52"/>
  </g>
  <g fill="#f8fafc">
    <circle cx="212" cy="324" r="26"/>
    <circle cx="508" cy="324" r="26"/>
  </g>
  <path d="M144 268h432" stroke="#0f172a" stroke-width="14" stroke-linecap="round" opacity="0.25"/>
</svg>
